<svg version="1.1" id="Layer_1" xmlns="http://www.w3.org/2000/svg" xmlns:xlink="http://www.w3.org/1999/xlink" x="0px" y="0px"
	 width="100%" viewBox="0 0 808 799" enable-background="new 0 0 808 799" xml:space="preserve">
<path fill="#F4C920" opacity="1.000000" stroke="none" 
	d="
M1.000000,405.000000 
	C1.000000,405.000000 1.000000,404.500000 1.326840,404.082092 
	C10.449106,400.765106 19.248583,397.878265 28.039146,394.964508 
	C47.031754,388.669067 66.019791,382.359863 85.399734,376.058044 
	C100.461586,371.334442 115.133408,366.609100 131.201431,361.434082 
	C117.683273,357.228882 105.519569,353.445038 93.058708,349.449463 
	C87.567245,347.495361 82.381767,345.726074 77.177147,344.015045 
	C51.787567,335.668182 26.392878,327.336853 1.000000,319.000000 
	C1.000000,319.000000 1.000000,318.500000 1.264365,318.006531 
	C16.333303,272.055573 31.137878,226.598068 45.980270,181.024460 
	C89.130524,195.057587 131.634583,208.880554 174.138641,222.703537 
	C174.300934,222.372437 174.463211,222.041321 174.625488,221.710220 
	C148.354691,185.510956 122.083893,149.311676 95.544724,112.742615 
	C134.871750,84.171837 173.864319,55.844051 213.012436,27.403263 
	C214.182297,28.825287 215.064682,29.792789 215.830658,30.845047 
	C224.551224,42.824764 233.222794,54.840248 241.969193,66.801018 
	C253.558365,82.649300 265.202332,98.457512 276.935669,114.598709 
	C282.194336,122.112144 287.340057,129.309830 292.485809,136.507507 
	C292.907898,136.387146 293.329987,136.266785 293.752075,136.146439 
	C293.752075,127.251930 293.752075,118.357430 293.727692,109.099586 
	C293.454834,108.326225 293.206360,107.916206 292.992859,107.523476 
	C293.027802,107.540756 293.022675,107.618576 293.118225,107.118233 
	C293.246033,75.050827 293.288696,43.483768 293.296387,11.916697 
	C293.297272,8.277822 293.103516,4.638900 293.000000,1.000000 
	C293.444336,1.000000 293.888672,1.000000 294.956024,1.300695 
	C297.557983,1.723248 299.536804,1.949172 301.515900,1.951697 
	C347.281464,2.010083 393.047089,2.044201 438.868042,2.543137 
	C438.989380,28.270302 439.055328,53.537148 439.043427,79.280716 
	C438.965546,98.604935 438.965546,117.452438 438.965546,136.299942 
	C439.299683,136.364349 439.633850,136.428757 439.967987,136.493164 
	C453.727356,117.323387 467.486725,98.153595 481.452820,78.734879 
	C494.145172,61.506226 506.630707,44.526516 519.263855,27.346098 
	C558.622742,55.950584 597.585815,84.267380 636.644287,112.653519 
	C633.108337,117.820618 630.021667,122.331169 626.642700,127.013855 
	C610.929077,148.394836 595.464355,169.572464 580.104614,190.825912 
	C572.643127,201.150421 565.377686,211.616684 557.779419,222.074768 
	C557.577271,222.309586 557.619019,222.488373 557.660828,222.667175 
	C557.775330,222.630997 557.987915,222.595154 557.988037,222.558502 
	C557.988831,222.351807 557.938599,222.144928 558.261841,222.170532 
	C586.423157,213.407944 614.228943,204.414581 642.033447,195.417236 
	C656.690918,190.674210 671.346130,185.924225 686.236755,181.101456 
	C689.930237,191.961502 693.496033,202.446182 697.080811,213.312134 
	C698.436584,217.945602 699.714050,222.217545 701.120911,226.446472 
	C706.328857,242.101471 711.579346,257.742310 716.869629,273.758270 
	C721.653137,289.120972 726.380859,304.113861 731.205688,319.414551 
	C688.077698,333.412689 645.310120,347.293884 601.553345,361.496094 
	C645.347900,375.716766 688.182800,389.625793 731.220032,403.600586 
	C729.056091,410.652405 727.067566,417.132507 724.962402,423.934418 
	C721.955933,433.155243 719.066101,442.054291 716.021606,451.299133 
	C706.077087,481.594604 696.287354,511.544342 686.397278,541.800903 
	C684.573364,541.266602 683.009827,540.850708 681.473022,540.352295 
	C641.839966,527.497498 602.212280,514.626282 562.569031,501.803070 
	C561.089111,501.324341 559.462769,501.298462 558.061401,500.854919 
	C557.953735,500.626007 557.689392,500.603668 557.424988,500.581360 
	C557.624634,500.714417 557.824341,500.847473 558.033447,501.329010 
	C584.235229,537.827087 610.427490,573.976685 636.733398,610.283142 
	C620.558594,622.047302 604.945862,633.367065 589.371399,644.739319 
	C570.584045,658.457703 551.829102,672.220459 532.729614,686.064331 
	C528.120850,689.224182 523.842590,692.283691 519.395447,695.464050 
	C518.196594,694.209778 517.198242,693.165222 516.067688,691.791382 
	C490.551666,656.448242 465.167847,621.434448 439.784027,586.420593 
	C439.393951,586.592896 439.003906,586.765198 438.613831,586.937500 
	C438.613831,631.827209 438.613831,676.716980 438.613831,722.048645 
	C415.676270,722.048645 393.203156,722.048645 370.279480,722.009216 
	C355.600006,721.995789 341.371155,722.021790 326.670715,721.964355 
	C315.429932,721.880859 304.660736,721.880859 293.290619,721.880859 
	C293.290619,676.564880 293.290619,631.892456 293.290619,587.220032 
	C292.947845,587.119385 292.605072,587.018738 292.262299,586.918091 
	C266.010010,623.057495 239.757706,659.196838 213.329803,695.578003 
	C202.842133,688.192322 192.678284,681.034729 182.306976,673.589478 
	C153.380264,652.352722 124.660995,631.403564 95.777435,610.334656 
	C101.448639,602.159302 106.919907,594.272156 112.631180,586.153076 
	C113.921234,584.646423 115.041061,583.422485 116.010979,582.089417 
	C132.853745,558.941833 149.681625,535.783386 166.502899,512.620117 
	C169.354553,508.693298 172.160461,504.733276 175.707123,499.784424 
	C166.379196,502.830780 158.346527,505.429993 150.329727,508.077148 
	C131.252274,514.376526 112.182304,520.698486 92.716461,527.014832 
	C76.925430,531.967346 61.527279,536.916443 45.927284,541.930359 
	C36.465214,512.832275 27.263504,484.391724 17.961868,455.983826 
	C12.388656,438.962799 6.659220,421.992889 1.000000,405.000000 
M346.336700,296.499908 
	C346.336700,334.075928 346.336700,371.651978 346.336700,410.566132 
	C315.531677,374.270416 278.240021,353.705292 231.213989,352.390045 
	C231.213989,368.823914 231.213989,384.553955 231.213989,400.498291 
	C232.699203,400.612762 233.840286,400.745483 234.984451,400.782196 
	C252.272888,401.336761 267.867523,407.090607 282.191284,416.460785 
	C304.828339,431.269409 319.800903,452.491791 330.928131,476.550598 
	C337.255066,490.230377 342.366852,504.472168 348.145264,518.755981 
	C362.800842,518.755981 378.077576,518.755981 393.425385,518.755981 
	C393.986847,516.986084 394.510101,515.424744 394.978455,513.847046 
	C401.788940,490.906403 411.123871,469.131653 424.940918,449.462555 
	C438.540833,430.102570 455.364258,414.410797 478.011932,406.492371 
	C488.089325,402.968994 498.904968,401.557190 509.711700,399.113190 
	C509.711700,384.306091 509.711700,368.577179 509.711700,352.366669 
	C462.440430,353.793091 424.998108,374.169617 394.199951,410.448700 
	C394.199951,352.793610 394.199951,296.435669 394.199951,239.892212 
	C378.085449,239.892212 362.494873,239.892212 346.336823,239.892212 
	C346.336823,258.587769 346.336823,277.043823 346.336700,296.499908 
z"/>
<path fill="#FFFFFF" opacity="1.000000" stroke="none" 
	d="
M327.142273,722.047852 
	C341.371155,722.021790 355.600006,721.995789 370.278717,722.473267 
	C370.728546,748.213745 370.728546,773.450623 370.728546,798.718506 
	C419.448944,798.718506 467.639160,798.718506 516.056030,798.718506 
	C516.056030,796.633667 516.053833,794.823425 516.056335,793.013245 
	C516.103882,759.382385 516.151917,725.751587 516.199890,692.120728 
	C517.198242,693.165222 518.196594,694.209778 519.395447,695.464050 
	C523.842590,692.283691 528.120850,689.224182 532.956421,686.310425 
	C554.421143,715.260071 575.328674,744.063965 596.328003,772.994446 
	C635.674744,744.408081 674.767395,716.006348 714.002747,687.500916 
	C687.413940,650.866394 661.114929,614.631287 634.815979,578.396179 
	C635.044373,578.122070 635.272766,577.847961 635.501221,577.573914 
	C678.078613,591.423401 720.656006,605.272827 763.591125,619.238708 
	C778.565613,573.161926 793.469604,527.302063 808.551636,480.894287 
	C777.375122,470.789246 746.775696,460.871307 716.176331,450.953339 
	C719.066101,442.054291 721.955933,433.155243 725.347046,423.824280 
	C753.248474,414.476959 780.648560,405.561584 808.525940,396.490906 
	C793.486267,350.216797 778.588318,304.378967 763.614197,258.306671 
	C747.745300,263.420532 732.279602,268.404480 716.813904,273.388458 
	C711.579346,257.742310 706.328857,242.101471 701.120911,226.446472 
	C699.714050,222.217545 698.436584,217.945602 697.368286,213.151138 
	C703.024902,205.142365 708.413025,197.675842 713.995667,189.939774 
	C684.733704,168.731903 655.834351,147.786804 626.934937,126.841705 
	C630.021667,122.331169 633.108337,117.820618 636.644287,112.653519 
	C597.585815,84.267380 558.622742,55.950584 519.263855,27.346098 
	C506.630707,44.526516 494.145172,61.506226 480.971954,78.652580 
	C466.563293,78.814148 452.842316,78.809074 439.121307,78.803993 
	C439.055328,53.537148 438.989380,28.270302 438.939453,2.276660 
	C438.970306,1.366577 438.985138,1.183288 439.000000,1.000000 
	C562.310608,1.000000 685.621216,1.000000 808.965942,1.000000 
	C808.965942,267.261505 808.965942,533.523010 808.965942,799.892273 
	C539.788147,799.892273 270.576263,799.892273 1.000000,799.892273 
	C1.000000,668.645996 1.000000,537.291687 1.000000,405.468658 
	C6.659220,421.992889 12.388656,438.962799 17.961868,455.983826 
	C27.263504,484.391724 36.465214,512.832275 45.927284,541.930359 
	C61.527279,536.916443 76.925430,531.967346 92.835724,527.357666 
	C99.695618,547.259644 106.043396,566.822327 112.391174,586.385010 
	C106.919907,594.272156 101.448639,602.159302 95.777435,610.334656 
	C124.660995,631.403564 153.380264,652.352722 182.106567,673.909424 
	C179.043884,678.806396 175.974182,683.095764 172.783905,687.553528 
	C212.142029,716.142151 251.230301,744.534790 290.494965,773.055603 
	C302.901855,755.786987 315.022064,738.917419 327.142273,722.047852 
z"/>
<path fill="#FFFFFF" opacity="1.000000" stroke="none" 
	d="
M292.531342,1.000000 
	C293.103516,4.638900 293.297272,8.277822 293.296387,11.916697 
	C293.288696,43.483768 293.246033,75.050827 292.804443,106.901932 
	C291.261383,105.150665 290.103760,104.434860 287.894470,106.227509 
	C284.355286,109.099236 280.528168,111.616104 276.822723,114.282959 
	C265.202332,98.457512 253.558365,82.649300 241.969193,66.801018 
	C233.222794,54.840248 224.551224,42.824764 215.830658,30.845047 
	C215.064682,29.792789 214.182297,28.825287 213.012436,27.403263 
	C173.864319,55.844051 134.871750,84.171837 95.544724,112.742615 
	C122.083893,149.311676 148.354691,185.510956 174.625488,221.710220 
	C174.463211,222.041321 174.300934,222.372437 174.138641,222.703537 
	C131.634583,208.880554 89.130524,195.057587 45.980270,181.024460 
	C31.137878,226.598068 16.333303,272.055573 1.264365,317.756531 
	C1.000000,212.409271 1.000000,106.818527 1.000000,1.000000 
	C98.020775,1.000000 195.041733,1.000000 292.531342,1.000000 
z"/>
<path fill="#FFFFFE" opacity="1.000000" stroke="none" 
	d="
M85.009689,376.056274 
	C66.019791,382.359863 47.031754,388.669067 28.039146,394.964508 
	C19.248583,397.878265 10.449106,400.765106 1.326840,403.832092 
	C1.000000,375.979095 1.000000,347.958221 1.000000,319.468658 
	C26.392878,327.336853 51.787567,335.668182 77.177147,344.015045 
	C82.381767,345.726074 87.567245,347.495361 92.930054,349.849884 
	C90.402275,358.993439 87.705978,367.524841 85.009689,376.056274 
z"/>
<path fill="#F7DA69" opacity="1.000000" stroke="none" 
	d="
M438.531342,1.000000 
	C438.985138,1.183288 438.970306,1.366577 438.884094,1.816342 
	C393.047089,2.044201 347.281464,2.010083 301.515900,1.951697 
	C299.536804,1.949172 297.557983,1.723248 295.289520,1.300695 
	C342.687561,1.000000 390.375122,1.000000 438.531342,1.000000 
z"/>
<path fill="#010101" opacity="1.000000" stroke="none" 
	d="
M716.021606,451.299133 
	C746.775696,460.871307 777.375122,470.789246 808.551636,480.894287 
	C793.469604,527.302063 778.565613,573.161926 763.591125,619.238708 
	C720.656006,605.272827 678.078613,591.423401 635.501221,577.573914 
	C635.272766,577.847961 635.044373,578.122070 634.815979,578.396179 
	C661.114929,614.631287 687.413940,650.866394 714.002747,687.500916 
	C674.767395,716.006348 635.674744,744.408081 596.328003,772.994446 
	C575.328674,744.063965 554.421143,715.260071 533.286865,686.210083 
	C551.829102,672.220459 570.584045,658.457703 589.371399,644.739319 
	C604.945862,633.367065 620.558594,622.047302 636.733398,610.283142 
	C610.427490,573.976685 584.235229,537.827087 558.004761,501.350861 
	C557.966492,501.024231 557.904663,501.061554 557.904663,501.061554 
	C559.462769,501.298462 561.089111,501.324341 562.569031,501.803070 
	C602.212280,514.626282 641.839966,527.497498 681.473022,540.352295 
	C683.009827,540.850708 684.573364,541.266602 686.397278,541.800903 
	C696.287354,511.544342 706.077087,481.594604 716.021606,451.299133 
z"/>
<path fill="#010100" opacity="1.000000" stroke="none" 
	d="
M346.336761,295.999878 
	C346.336823,277.043823 346.336823,258.587769 346.336823,239.892212 
	C362.494873,239.892212 378.085449,239.892212 394.199951,239.892212 
	C394.199951,296.435669 394.199951,352.793610 394.199951,410.448700 
	C424.998108,374.169617 462.440430,353.793091 509.711700,352.366669 
	C509.711700,368.577179 509.711700,384.306091 509.711700,399.113190 
	C498.904968,401.557190 488.089325,402.968994 478.011932,406.492371 
	C455.364258,414.410797 438.540833,430.102570 424.940918,449.462555 
	C411.123871,469.131653 401.788940,490.906403 394.978455,513.847046 
	C394.510101,515.424744 393.986847,516.986084 393.425385,518.755981 
	C378.077576,518.755981 362.800842,518.755981 348.145264,518.755981 
	C342.366852,504.472168 337.255066,490.230377 330.928131,476.550598 
	C319.800903,452.491791 304.828339,431.269409 282.191284,416.460785 
	C267.867523,407.090607 252.272888,401.336761 234.984451,400.782196 
	C233.840286,400.745483 232.699203,400.612762 231.213989,400.498291 
	C231.213989,384.553955 231.213989,368.823914 231.213989,352.390045 
	C278.240021,353.705292 315.531677,374.270416 346.336700,410.566132 
	C346.336700,371.651978 346.336700,334.075928 346.336761,295.999878 
z"/>
<path fill="#000000" opacity="1.000000" stroke="none" 
	d="
M516.067688,691.791382 
	C516.151917,725.751587 516.103882,759.382385 516.056335,793.013245 
	C516.053833,794.823425 516.056030,796.633667 516.056030,798.718506 
	C467.639160,798.718506 419.448944,798.718506 370.728546,798.718506 
	C370.728546,773.450623 370.728546,748.213745 370.729309,722.512695 
	C393.203156,722.048645 415.676270,722.048645 438.613831,722.048645 
	C438.613831,676.716980 438.613831,631.827209 438.613831,586.937500 
	C439.003906,586.765198 439.393951,586.592896 439.784027,586.420593 
	C465.167847,621.434448 490.551666,656.448242 516.067688,691.791382 
z"/>
<path fill="#010101" opacity="1.000000" stroke="none" 
	d="
M716.869629,273.758270 
	C732.279602,268.404480 747.745300,263.420532 763.614197,258.306671 
	C778.588318,304.378967 793.486267,350.216797 808.525940,396.490906 
	C780.648560,405.561584 753.248474,414.476959 725.463745,423.502502 
	C727.067566,417.132507 729.056091,410.652405 731.220032,403.600586 
	C688.182800,389.625793 645.347900,375.716766 601.553345,361.496094 
	C645.310120,347.293884 688.077698,333.412689 731.205688,319.414551 
	C726.380859,304.113861 721.653137,289.120972 716.869629,273.758270 
z"/>
<path fill="#010101" opacity="1.000000" stroke="none" 
	d="
M326.670715,721.964355 
	C315.022064,738.917419 302.901855,755.786987 290.494965,773.055603 
	C251.230301,744.534790 212.142029,716.142151 172.783905,687.553528 
	C175.974182,683.095764 179.043884,678.806396 182.314011,674.197083 
	C192.678284,681.034729 202.842133,688.192322 213.329803,695.578003 
	C239.757706,659.196838 266.010010,623.057495 292.262299,586.918091 
	C292.605072,587.018738 292.947845,587.119385 293.290619,587.220032 
	C293.290619,631.892456 293.290619,676.564880 293.290619,721.880859 
	C304.660736,721.880859 315.429932,721.880859 326.670715,721.964355 
z"/>
<path fill="#020201" opacity="1.000000" stroke="none" 
	d="
M626.642700,127.013840 
	C655.834351,147.786804 684.733704,168.731903 713.995667,189.939774 
	C708.413025,197.675842 703.024902,205.142365 697.349304,212.769867 
	C693.496033,202.446182 689.930237,191.961502 686.236755,181.101456 
	C671.346130,185.924225 656.690918,190.674210 642.033447,195.417236 
	C614.228943,204.414581 586.423157,213.407944 558.292236,222.189209 
	C557.966614,221.975449 558.023438,222.018738 558.023438,222.018738 
	C565.377686,211.616684 572.643127,201.150421 580.104614,190.825912 
	C595.464355,169.572464 610.929077,148.394836 626.642700,127.013840 
z"/>
<path fill="#030201" opacity="1.000000" stroke="none" 
	d="
M112.631165,586.153076 
	C106.043396,566.822327 99.695618,547.259644 93.228584,527.354126 
	C112.182304,520.698486 131.252274,514.376526 150.329727,508.077148 
	C158.346527,505.429993 166.379196,502.830780 175.707123,499.784424 
	C172.160461,504.733276 169.354553,508.693298 166.502899,512.620117 
	C149.681625,535.783386 132.853745,558.941833 116.010979,582.089417 
	C115.041061,583.422485 113.921234,584.646423 112.631165,586.153076 
z"/>
<path fill="#020100" opacity="1.000000" stroke="none" 
	d="
M439.043427,79.280716 
	C452.842316,78.809074 466.563293,78.814148 480.765198,78.901520 
	C467.486725,98.153595 453.727356,117.323387 439.967987,136.493164 
	C439.633850,136.428757 439.299683,136.364349 438.965546,136.299942 
	C438.965546,117.452438 438.965546,98.604935 439.043427,79.280716 
z"/>
<path fill="#050502" opacity="1.000000" stroke="none" 
	d="
M85.399719,376.058044 
	C87.705978,367.524841 90.402275,358.993439 93.227219,350.061584 
	C105.519569,353.445038 117.683273,357.228882 131.201431,361.434082 
	C115.133408,366.609100 100.461586,371.334442 85.399719,376.058044 
z"/>
<path fill="#050402" opacity="1.000000" stroke="none" 
	d="
M276.935669,114.598709 
	C280.528168,111.616104 284.355286,109.099236 287.894470,106.227509 
	C290.103760,104.434860 291.261383,105.150665 292.708893,107.402267 
	C293.022675,107.618576 293.027802,107.540756 293.021973,107.890266 
	C293.261475,108.647491 293.506775,109.055206 293.752075,109.462929 
	C293.752075,118.357430 293.752075,127.251930 293.752075,136.146439 
	C293.329987,136.266785 292.907898,136.387146 292.485809,136.507507 
	C287.340057,129.309830 282.194336,122.112144 276.935669,114.598709 
z"/>
<path fill="#020201" opacity="1.000000" stroke="none" 
	d="
M557.936157,221.956787 
	C557.938599,222.144928 557.988831,222.351807 557.988037,222.558502 
	C557.987915,222.595154 557.775330,222.630997 557.660828,222.667175 
	C557.619019,222.488373 557.577271,222.309586 557.779419,222.074768 
	C558.023438,222.018738 557.966614,221.975449 557.936157,221.956787 
z"/>
<path fill="#F7DA69" opacity="1.000000" stroke="none" 
	d="
M293.727692,109.099586 
	C293.506775,109.055206 293.261475,108.647491 292.987030,107.872986 
	C293.206360,107.916206 293.454834,108.326225 293.727692,109.099586 
z"/>
<path fill="#010101" opacity="1.000000" stroke="none" 
	d="
M557.995239,501.002380 
	C557.824341,500.847473 557.624634,500.714417 557.424988,500.581360 
	C557.689392,500.603668 557.953735,500.626007 558.061401,500.854919 
	C557.904663,501.061554 557.966492,501.024231 557.995239,501.002380 
z"/>
</svg>